<?xml version="1.0" encoding="utf-8"?>
<!-- Generator: Adobe Illustrator 17.0.0, SVG Export Plug-In . SVG Version: 6.00 Build 0)  -->
<!DOCTYPE svg PUBLIC "-//W3C//DTD SVG 1.1//EN" "http://www.w3.org/Graphics/SVG/1.1/DTD/svg11.dtd">
<svg version="1.1" id="Layer_1" xmlns="http://www.w3.org/2000/svg" xmlns:xlink="http://www.w3.org/1999/xlink" x="0px" y="0px"
	 width="275px" height="260px" viewBox="0 0 275 260" enable-background="new 0 0 275 260" xml:space="preserve">
<path fill="#CCCCCC" d="M221.507,14.5v90.364h-99.645V39.077c19.114,1.755,35.553,11.669,49.255,29.918l19.871-19.032
	c-11.576-13.215-23.344-22.767-35.31-28.645c-12.526-5.876-26.015-8.817-40.454-8.817c-26.892,0-49.712,9.375-68.461,28.126
	c-18.754,18.673-28.13,41.414-28.13,68.225c0,26.25,9.216,48.752,27.648,67.504c12.008,12.156,25.612,20.285,40.766,24.524
	l-0.042,44.618h34.857v-41.564c22.406-2.005,41.184-11.503,56.314-28.539c7.583-8.615,12.972-17.871,16.158-27.766
	c0.968-3.175,1.755-6.543,2.439-9.999h24.733v107.868h34.858V14.5H221.507z M68.787,159.597
	c-14.763-13.324-22.145-30.28-22.145-50.868c0-19.946,6.62-36.543,19.871-49.789c6.192-6.305,13.104-11.077,20.675-14.433
	l-0.123,127.275C80.781,168.758,74.662,164.86,68.787,159.597z M150.65,164.301c-8.696,7.346-18.321,11.64-28.787,13.14V137.63
	h45.763C165.151,147.73,159.615,156.665,150.65,164.301z"/>
</svg>
